<?xml version="1.0" standalone="no"?>
<!DOCTYPE svg PUBLIC "-//W3C//DTD SVG 20010904//EN"
 "http://www.w3.org/TR/2001/REC-SVG-20010904/DTD/svg10.dtd">
<svg version="1.0" xmlns="http://www.w3.org/2000/svg"
 width="400.000000pt" height="400.000000pt" viewBox="0 0 400.000000 400.000000"
 preserveAspectRatio="xMidYMid meet">

<g transform="translate(0.000000,400.000000) scale(0.100000,-0.100000)"
fill="#000000" stroke="none">
<path d="M2040 2768 l0 -131 -22 20 c-32 28 -56 40 -106 48 -94 15 -198 -35
-248 -122 -24 -40 -29 -61 -32 -138 -4 -78 -1 -99 18 -143 64 -148 260 -201
367 -100 l23 21 0 -31 0 -32 55 0 55 0 0 370 0 370 -55 0 -55 0 0 -132z m-80
-186 c97 -48 109 -221 20 -296 -42 -35 -120 -39 -172 -8 -63 37 -90 163 -50
242 36 73 126 101 202 62z"/>
<path d="M1240 2847 c-161 -45 -235 -194 -184 -368 20 -67 97 -148 160 -167
144 -43 296 28 339 159 26 76 17 192 -18 252 -63 106 -182 156 -297 124z m141
-118 c96 -48 108 -218 21 -291 -73 -61 -185 -36 -229 52 -79 155 60 315 208
239z"/>
<path d="M2401 2743 c-57 -20 -123 -87 -146 -145 -23 -62 -18 -196 10 -253 25
-52 87 -111 133 -127 20 -7 69 -12 108 -12 94 0 156 30 202 98 44 67 42 81
-14 95 -26 7 -48 11 -49 9 -1 -2 -10 -18 -19 -35 -21 -43 -63 -63 -128 -63
-62 0 -110 25 -133 69 -32 62 -35 61 186 61 l202 0 -5 73 c-7 106 -49 176
-133 219 -53 28 -155 33 -214 11z m176 -113 c32 -19 67 -72 56 -84 -8 -8 -268
-8 -276 0 -11 12 24 65 56 84 20 13 50 20 82 20 32 0 62 -7 82 -20z"/>
<path d="M649 2637 c-153 -58 -222 -201 -174 -363 40 -136 192 -212 338 -170
87 25 150 91 171 178 6 25 3 27 -45 38 -27 7 -51 11 -53 9 -1 -2 -11 -24 -21
-48 -11 -25 -32 -52 -50 -62 -39 -25 -119 -25 -165 -1 -43 23 -80 90 -80 147
0 54 37 124 79 152 24 16 49 23 85 23 69 0 109 -26 131 -84 20 -51 18 -50 80
-35 l43 11 -13 44 c-30 101 -110 162 -222 170 -44 3 -81 0 -104 -9z"/>
<path d="M1100 1760 l0 -370 55 0 55 0 0 163 c0 184 13 233 69 261 56 30 146
13 167 -31 5 -10 11 -101 14 -203 l5 -185 53 -3 52 -3 0 188 c0 106 -5 205
-11 228 -20 72 -106 135 -184 135 -41 0 -97 -22 -130 -52 l-35 -30 0 136 0
136 -55 0 -55 0 0 -370z"/>
<path d="M1815 2015 c-52 -51 -16 -145 55 -145 39 0 90 47 90 83 0 14 -12 39
-26 56 -33 40 -83 43 -119 6z"/>
<path d="M3361 2013 c-69 -35 -94 -77 -88 -146 8 -89 59 -129 192 -147 91 -12
125 -30 125 -65 0 -45 -32 -65 -104 -65 -55 0 -69 4 -95 26 -18 15 -33 39 -37
60 -7 37 -16 40 -76 24 -35 -10 -37 -13 -31 -43 22 -116 141 -190 276 -173
104 14 166 70 175 156 10 103 -45 154 -188 176 -111 16 -130 26 -130 64 0 84
179 75 197 -10 6 -33 17 -36 76 -19 34 9 37 12 31 37 -20 86 -96 142 -204 149
-57 4 -72 1 -119 -24z"/>
<path d="M2275 2013 c-16 -8 -38 -22 -47 -31 -17 -14 -18 -13 -18 11 0 26 -2
27 -55 27 l-55 0 0 -265 0 -265 55 0 55 0 0 163 c0 190 12 232 73 260 43 21
67 21 113 2 56 -23 64 -56 64 -255 l0 -170 55 0 55 0 0 178 c0 128 -4 192 -15
228 -16 54 -62 106 -108 123 -42 16 -137 13 -172 -6z"/>
<path d="M2820 1965 c-25 -8 -62 -28 -82 -45 -121 -101 -124 -333 -5 -436 43
-36 118 -64 174 -64 41 0 100 24 130 52 l23 21 0 -76 0 -77 -160 0 -160 0 0
-55 0 -55 170 0 c191 0 229 9 248 56 9 21 12 120 10 354 l-3 325 -52 3 -53 3
0 -32 0 -32 -23 21 c-53 50 -132 63 -217 37z m168 -115 c93 -57 93 -243 0
-300 -42 -25 -112 -26 -157 -2 -49 26 -71 73 -71 150 0 71 15 108 60 146 40
34 118 36 168 6z"/>
<path d="M720 1846 l0 -106 -80 0 -80 0 0 -50 0 -49 78 -3 77 -3 3 -187 2
-187 31 -25 c29 -24 37 -26 135 -26 l104 0 0 50 0 50 -80 0 -80 0 0 165 0 165
95 0 95 0 0 50 0 50 -95 0 -94 0 -3 103 -3 102 -52 3 -53 3 0 -105z"/>
<path d="M1660 1740 l0 -50 80 0 80 0 0 -165 0 -165 -90 0 -90 0 0 -50 0 -50
225 0 225 0 0 50 0 50 -80 0 -80 0 0 215 0 215 -135 0 -135 0 0 -50z"/>
<path d="M2466 1344 c-35 -36 -34 -77 3 -115 31 -31 59 -36 94 -17 33 17 46
39 47 76 0 74 -90 109 -144 56z"/>
</g>
</svg>
